<svg width="114" height="108" viewBox="0 0 114 108" fill="none" xmlns="http://www.w3.org/2000/svg">
<path d="M31.3194 83.3021L31.3194 24.611C31.3194 22.1762 29.3465 20.2014 26.9117 20.2014C24.477 20.2014 22.5041 22.1762 22.5041 24.611L22.5041 29.8182C9.95025 30.706 -2.03398e-06 41.1796 -1.47544e-06 53.9575C-9.169e-07 66.7354 9.95025 77.2073 22.5041 78.0949L22.5041 83.3021C22.5041 85.7368 24.477 87.7117 26.9117 87.7117C29.3465 87.7117 31.3194 85.7368 31.3194 83.3021ZM8.81531 53.9575C8.8153 46.0499 14.8259 39.5913 22.5041 38.724L22.5041 69.1891C14.8259 68.3218 8.81531 61.8634 8.81531 53.9575Z" fill="#AE3E58"/>
<path d="M49.9485 53.3566C49.9485 50.8785 47.9396 48.8697 45.4615 48.8697C42.9835 48.8697 40.9746 50.8785 40.9746 53.3566C40.9746 55.8346 42.9835 57.8435 45.4615 57.8435C47.9396 57.8435 49.9485 55.8346 49.9485 53.3566Z" fill="#AE3E58"/>
<path d="M49.1594 81.9916C49.1594 79.5135 47.1505 77.5047 44.6725 77.5047C42.1944 77.5047 40.1855 79.5135 40.1855 81.9916C40.1855 84.4697 42.1944 86.4785 44.6725 86.4785C47.1505 86.4785 49.1594 84.4697 49.1594 81.9916Z" fill="#AE3E58"/>
<path d="M69.1599 89.1366C69.1599 86.6586 67.151 84.6497 64.673 84.6497C62.1949 84.6497 60.186 86.6586 60.186 89.1366C60.186 91.6147 62.1949 93.6235 64.673 93.6235C67.151 93.6235 69.1599 91.6147 69.1599 89.1366Z" fill="#AE3E58"/>
<path d="M89.1633 96.2804C89.1633 93.8024 87.1544 91.7935 84.6764 91.7935C82.1983 91.7935 80.1895 93.8024 80.1895 96.2804C80.1895 98.7585 82.1983 100.767 84.6764 100.767C87.1544 100.767 89.1633 98.7585 89.1633 96.2804Z" fill="#AE3E58"/>
<path d="M109.166 103.425C109.166 100.947 107.157 98.9383 104.679 98.9383C102.201 98.9383 100.192 100.947 100.192 103.425C100.192 105.903 102.201 107.912 104.679 107.912C107.157 107.912 109.166 105.903 109.166 103.425Z" fill="#AE3E58"/>
<path d="M71.1877 53.3566C71.1877 50.8785 69.1788 48.8697 66.7008 48.8697C64.2227 48.8697 62.2139 50.8785 62.2139 53.3566C62.2139 55.8346 64.2227 57.8435 66.7008 57.8435C69.1788 57.8435 71.1877 55.8346 71.1877 53.3566Z" fill="#AE3E58"/>
<path d="M92.4279 53.3566C92.4279 50.8785 90.4191 48.8697 87.941 48.8697C85.463 48.8697 83.4541 50.8785 83.4541 53.3566C83.4541 55.8346 85.463 57.8435 87.941 57.8435C90.4191 57.8435 92.4279 55.8346 92.4279 53.3566Z" fill="#AE3E58"/>
<path d="M113.667 53.3566C113.667 50.8785 111.658 48.8697 109.18 48.8697C106.702 48.8697 104.693 50.8785 104.693 53.3566C104.693 55.8346 106.702 57.8435 109.18 57.8435C111.658 57.8435 113.667 55.8346 113.667 53.3566Z" fill="#AE3E58"/>
<path d="M109.181 4.48696C109.181 2.0089 107.172 3.49815e-05 104.694 3.50898e-05C102.216 3.51981e-05 100.208 2.0089 100.208 4.48696C100.208 6.96501 102.216 8.97388 104.694 8.97388C107.172 8.97388 109.181 6.96501 109.181 4.48696Z" fill="#AE3E58"/>
<path d="M89.1633 11.631C89.1633 9.15294 87.1544 7.14408 84.6764 7.14408C82.1983 7.14408 80.1895 9.15294 80.1895 11.631C80.1895 14.1091 82.1983 16.1179 84.6764 16.1179C87.1544 16.1179 89.1633 14.1091 89.1633 11.631Z" fill="#AE3E58"/>
<path d="M69.1599 18.7755C69.1599 16.2975 67.151 14.2886 64.673 14.2886C62.1949 14.2886 60.186 16.2975 60.186 18.7755C60.186 21.2536 62.1949 23.2625 64.673 23.2625C67.151 23.2625 69.1599 21.2536 69.1599 18.7755Z" fill="#AE3E58"/>
<path d="M49.1594 25.9193C49.1594 23.4413 47.1505 21.4324 44.6725 21.4324C42.1944 21.4324 40.1855 23.4413 40.1855 25.9193C40.1855 28.3974 42.1944 30.4062 44.6725 30.4062C47.1505 30.4062 49.1594 28.3974 49.1594 25.9193Z" fill="#AE3E58"/>
</svg>
